<?xml version="1.0" encoding="UTF-8" standalone="yes"?>
<svg xmlns="http://www.w3.org/2000/svg" viewBox="0 0 50 50" width="100" height="100" fill="#000000">
  <path style="line-height:normal;text-indent:0;text-align:start;text-decoration-line:none;text-decoration-style:solid;text-decoration-color:#000000;text-transform:none;block-progression:tb;isolation:auto;mix-blend-mode:normal" d="M 24 0 L 24 1 L 24 4.0253906 C 13.20845 4.5329024 4.5329024 13.20845 4.0253906 24 L 1 24 L 0 24 L 0 26 L 1 26 L 4.0253906 26 C 4.5329024 36.79155 13.20845 45.467098 24 45.974609 L 24 49 L 24 50 L 26 50 L 26 49 L 26 45.974609 C 36.79155 45.467098 45.467098 36.79155 45.974609 26 L 49 26 L 50 26 L 50 24 L 49 24 L 45.974609 24 C 45.467098 13.20845 36.79155 4.5329024 26 4.0253906 L 26 1 L 26 0 L 24 0 z M 24 6.0507812 L 24 9 L 24 10 L 26 10 L 26 9 L 26 6.0507812 C 35.703044 6.5553041 43.444696 14.296956 43.949219 24 L 41 24 L 40 24 L 40 26 L 41 26 L 43.949219 26 C 43.444696 35.703044 35.703044 43.444696 26 43.949219 L 26 41 L 26 40 L 24 40 L 24 41 L 24 43.949219 C 14.296956 43.444696 6.5553041 35.703044 6.0507812 26 L 9 26 L 10 26 L 10 24 L 9 24 L 6.0507812 24 C 6.5553041 14.296956 14.296956 6.5553041 24 6.0507812 z" font-weight="400" font-family="sans-serif" white-space="normal" overflow="visible"/>
</svg>
