<?xml version="1.0" encoding="UTF-8" standalone="yes"?>
<svg xmlns="http://www.w3.org/2000/svg" xmlns:xlink="http://www.w3.org/1999/xlink" viewBox="0 0 50 50" version="1.1" width="100" height="100" fill="#000000">
  <g id="surface1">
    <path style=" " d="M 41.90625 0.96875 C 41.863281 0.976563 41.820313 0.988281 41.78125 1 C 41.316406 1.105469 40.988281 1.523438 41 2 L 41 8.5 C 36.882813 4.496094 31.222656 2 25 2 C 12.265625 2 2 12.265625 2 25 C 2 37.734375 12.265625 48 25 48 C 37.734375 48 48 37.734375 48 25 C 48 21.234375 47.066406 17.574219 45.5 14.4375 L 43.71875 15.34375 C 45.152344 18.207031 46 21.566406 46 25 C 46 36.664063 36.664063 46 25 46 C 13.335938 46 4 36.664063 4 25 C 4 13.335938 13.335938 4 25 4 C 30.730469 4 35.894531 6.304688 39.65625 10 L 33 10 C 32.640625 9.996094 32.304688 10.183594 32.121094 10.496094 C 31.941406 10.808594 31.941406 11.191406 32.121094 11.503906 C 32.304688 11.816406 32.640625 12.003906 33 12 L 43 12 L 43 2 C 43.011719 1.710938 42.894531 1.433594 42.6875 1.238281 C 42.476563 1.039063 42.191406 0.941406 41.90625 0.96875 Z M 24 9 L 24 23.28125 C 23.402344 23.628906 23 24.261719 23 25 C 23 26.105469 23.894531 27 25 27 C 25.171875 27 25.339844 26.980469 25.5 26.9375 L 32.28125 33.71875 L 33.71875 32.28125 L 26.9375 25.5 C 26.980469 25.339844 27 25.171875 27 25 C 27 24.261719 26.597656 23.628906 26 23.28125 L 26 9 Z "/>
  </g>
</svg>
