<?xml version="1.0" encoding="UTF-8" standalone="yes"?>
<svg xmlns="http://www.w3.org/2000/svg" viewBox="0 0 16 16" width="16" height="16" fill="#fff">
  <path style="line-height:normal;text-indent:0;text-align:start;text-decoration-line:none;text-decoration-style:solid;text-decoration-color:#000000;text-transform:none;block-progression:tb;isolation:auto;mix-blend-mode:normal" d="M 8.5097656 2.0683594 L 6.3105469 4.1035156 C 6.6755469 4.1905156 7.0161719 4.3363438 7.3261719 4.5273438 L 8.5078125 3.4335938 L 13 7.6171875 L 13 13 L 9.8789062 13 C 9.510122 11.390957 8.2747117 10.12106 6.6933594 9.6816406 C 7.466628 9.2552098 8 8.4408092 8 7.5 C 8 6.1252104 6.8747896 5 5.5 5 C 4.1252104 5 3 6.1252104 3 7.5 C 3 8.4408092 3.533372 9.2552098 4.3066406 9.6816406 C 2.4078615 10.209265 1 11.936616 1 14 L 2 14 C 2 12.061258 3.561258 10.5 5.5 10.5 C 7.438742 10.5 9 12.061258 9 14 L 10 14 L 14 14 L 14 8.546875 L 14.658203 9.1601562 L 15.341797 8.4296875 L 8.5097656 2.0683594 z M 5.5 6 C 6.3343494 6 7 6.6656506 7 7.5 C 7 8.3343494 6.3343494 9 5.5 9 C 4.6656506 9 4 8.3343494 4 7.5 C 4 6.6656506 4.6656506 6 5.5 6 z" font-weight="400" font-family="sans-serif" white-space="normal" overflow="visible"/>
</svg>
